<?xml version="1.0" encoding="UTF-8" standalone="no"?>
<svg width="145px" height="156px" viewBox="0 0 145 156" version="1.1" xmlns="http://www.w3.org/2000/svg" xmlns:xlink="http://www.w3.org/1999/xlink">
    <g id="Page-1" stroke="none" stroke-width="1" fill="none" fill-rule="evenodd">
        <g id="Desktop-Copy-10" transform="translate(-423.000000, -622.000000)" fill="#383838">
            <path d="M449.184594,682.492547 C406.154663,749.9174 465.184594,802.492547 486.684594,769.992547 C497.05203,754.320843 476.684594,654.992547 473.184594,652.492547 C469.684594,649.992547 468.684594,653.992547 466.184594,655.992547 C465.219297,656.185607 462.261216,655.048017 463.184594,654.492547 C482.684594,633.992547 501.684594,612.992547 526.684594,617.492547 C551.684594,621.992547 562.707462,645.018772 559.133856,671.181328 C555.56025,697.343884 517.384852,721.063897 515.421598,721.445515 C513.458343,721.827133 515.24458,717.914415 515.639989,717.328197 C536.090933,707.240636 539.679463,660.191487 527.04243,639.726752 C514.405396,619.262016 501.139638,624.38741 493.684594,631.992547 C503.684594,677.992547 527.184594,749.492547 490.184594,776.492547 C469.90252,791.29298 444.077653,782.575393 434.184594,755.492547 C427.331294,736.731223 426.184594,711.992547 446.684594,679.492547 C448.988144,675.78266 449.184594,682.492547 449.184594,682.492547 Z" id="JP-Logo" transform="translate(494.753428, 700.262734) rotate(11.000000) translate(-494.753428, -700.262734) "></path>
        </g>
    </g>
</svg>